<svg width="452" height="896" viewBox="0 0 452 896" fill="none" xmlns="http://www.w3.org/2000/svg">
<g filter="url(#filter0_i_568_15)">
<rect x="3" width="446" height="896" rx="62" fill="#1A1A1A"/>
</g>
<rect x="3.5" y="0.5" width="445" height="895" rx="61.5" stroke="url(#paint0_linear_568_15)" stroke-opacity="0.5"/>
<rect x="7" y="4" width="438" height="888" rx="58" fill="black"/>
<g filter="url(#filter1_i_568_15)">
<path d="M0 153.6C0 153.04 0 152.76 0.108993 152.546C0.204867 152.358 0.357847 152.205 0.546009 152.109C0.759921 152 1.03995 152 1.6 152H3V182H1.6C1.03995 182 0.759921 182 0.546009 181.891C0.357847 181.795 0.204867 181.642 0.108993 181.454C0 181.24 0 180.96 0 180.4V153.6Z" fill="#333333"/>
</g>
<g filter="url(#filter2_i_568_15)">
<path d="M0 215.6C0 215.04 0 214.76 0.108993 214.546C0.204867 214.358 0.357847 214.205 0.546009 214.109C0.759921 214 1.03995 214 1.6 214H3V278H1.6C1.03995 278 0.759921 278 0.546009 277.891C0.357847 277.795 0.204867 277.642 0.108993 277.454C0 277.24 0 276.96 0 276.4V215.6Z" fill="#333333"/>
</g>
<g filter="url(#filter3_i_568_15)">
<path d="M0 295.6C0 295.04 0 294.76 0.108993 294.546C0.204867 294.358 0.357847 294.205 0.546009 294.109C0.759921 294 1.03995 294 1.6 294H3V358H1.6C1.03995 358 0.759921 358 0.546009 357.891C0.357847 357.795 0.204867 357.642 0.108993 357.454C0 357.24 0 356.96 0 356.4V295.6Z" fill="#333333"/>
</g>
<g filter="url(#filter4_i_568_15)">
<path d="M449 236H450.4C450.96 236 451.24 236 451.454 236.109C451.642 236.205 451.795 236.358 451.891 236.546C452 236.76 452 237.04 452 237.6V342.4C452 342.96 452 343.24 451.891 343.454C451.795 343.642 451.642 343.795 451.454 343.891C451.24 344 450.96 344 450.4 344H449V236Z" fill="#333333"/>
</g>
<g clip-path="url(#clip0_568_15)">
<rect x="25" y="22" width="402" height="852" rx="30" fill="#1F319D"/>
<mask id="path-10-outside-1_568_15" maskUnits="userSpaceOnUse" x="139" y="412" width="175" height="67" fill="black">
<rect fill="white" x="139" y="412" width="175" height="67"/>
<path d="M142.712 432.52C142.712 431.325 143.011 430.451 143.608 429.896C144.248 429.299 144.973 429 145.784 429H159.544V432.52H151.16L160.952 454.792C160.952 457.139 160.589 458.76 159.864 459.656C159.181 460.552 158.264 461 157.112 461H154.232V477.128H147.64V461H144.12C143.096 461 142.2 460.723 141.432 460.168C140.664 459.571 140.28 458.781 140.28 457.8V454.408C140.28 452.915 140.792 451.677 141.816 450.696C142.84 449.715 143.907 449.224 145.016 449.224C147.491 449.224 149.624 450.397 151.416 452.744C151.971 453.512 152.611 454.685 153.336 456.264L142.712 432.52ZM146.936 457.8H151.16C150.861 457.16 150.605 456.691 150.392 456.392C149.709 455.411 149.069 454.92 148.472 454.92C147.917 454.92 147.405 455.368 146.936 456.264V457.8ZM165.962 432.52C165.962 431.325 166.261 430.451 166.858 429.896C167.498 429.299 168.223 429 169.034 429H182.794V432.52H174.41L184.202 454.792C184.202 457.139 183.839 458.76 183.114 459.656C182.431 460.552 181.514 461 180.362 461H177.482V477.128H170.89V461H167.37C166.346 461 165.45 460.723 164.682 460.168C163.914 459.571 163.53 458.781 163.53 457.8V454.408C163.53 452.915 164.042 451.677 165.066 450.696C166.09 449.715 167.157 449.224 168.266 449.224C170.741 449.224 172.874 450.397 174.666 452.744C175.221 453.512 175.861 454.685 176.586 456.264L165.962 432.52ZM170.186 457.8H174.41C174.111 457.16 173.855 456.691 173.642 456.392C172.959 455.411 172.319 454.92 171.722 454.92C171.167 454.92 170.655 455.368 170.186 456.264V457.8ZM168.86 419.784C167.921 418.376 167.452 417.096 167.452 415.944C167.452 415.048 167.708 414.344 168.22 413.832C168.732 413.32 169.457 413.064 170.396 413.064H184.22V417.672H175.26L184.22 430.088L176.86 431.624L168.86 419.784ZM187.405 431.048C187.405 430.621 187.682 430.173 188.237 429.704C188.834 429.192 189.56 428.936 190.413 428.936H194.637C195.448 428.936 196.152 429.213 196.749 429.768C197.218 430.195 197.453 430.621 197.453 431.048V438.28C197.453 438.707 197.197 439.133 196.685 439.56C196.173 439.987 195.49 440.2 194.637 440.2H190.413C189.56 440.2 188.834 439.987 188.237 439.56C187.682 439.133 187.405 438.707 187.405 438.28V431.048ZM190.989 438.28H193.677V430.664H190.989V438.28ZM187.405 451.784C187.405 451.357 187.682 450.909 188.237 450.44C188.834 449.928 189.56 449.672 190.413 449.672H194.637C195.448 449.672 196.152 449.949 196.749 450.504C197.218 450.931 197.453 451.357 197.453 451.784V459.016C197.453 459.443 197.197 459.869 196.685 460.296C196.173 460.723 195.49 460.936 194.637 460.936H190.413C189.56 460.936 188.834 460.723 188.237 460.296C187.682 459.869 187.405 459.443 187.405 459.016V451.784ZM190.989 459.016H193.677V451.4H190.989V459.016ZM200.03 432.584C200.03 431.56 200.371 430.707 201.054 430.024C201.737 429.341 202.59 429 203.614 429H229.79C230.771 429 231.625 429.363 232.35 430.088C233.075 430.813 233.438 431.645 233.438 432.584V457.416C233.438 458.44 233.075 459.293 232.35 459.976C231.625 460.659 230.771 461 229.79 461H203.614C202.633 461 201.779 460.659 201.054 459.976C200.371 459.251 200.03 458.397 200.03 457.416V432.584ZM220.638 457.416H225.758V432.52H220.638V457.416ZM207.582 457.416H212.766V432.52H207.582V457.416ZM220.735 424.008H225.919V416.648H220.735V424.008ZM213.119 416.648C213.119 415.624 213.461 414.771 214.143 414.088C214.826 413.405 215.701 413.064 216.767 413.064H230.079C231.103 413.064 231.978 413.427 232.703 414.152C233.386 414.835 233.727 415.667 233.727 416.648V424.008C233.727 425.032 233.386 425.885 232.703 426.568C232.021 427.251 231.146 427.592 230.079 427.592H216.767C215.743 427.592 214.89 427.251 214.207 426.568C213.482 425.843 213.119 424.989 213.119 424.008V416.648ZM253.054 461H239.678C238.654 461 237.779 460.659 237.054 459.976C236.371 459.251 236.03 458.376 236.03 457.352V432.648V429H243.646V457.544H248.83L248.766 429H256.702V457.544C256.702 458.44 256.361 459.251 255.678 459.976C255.038 460.659 254.163 461 253.054 461ZM241.36 419.784C240.421 418.376 239.952 417.096 239.952 415.944C239.952 415.048 240.208 414.344 240.72 413.832C241.232 413.32 241.957 413.064 242.896 413.064H256.72V417.672H247.76L256.72 430.088L249.36 431.624L241.36 419.784ZM267.457 457.416H272.641V432.52H267.457V457.416ZM276.609 461H263.489C262.465 461 261.612 460.659 260.929 459.976C260.246 459.293 259.905 458.44 259.905 457.416V432.584C259.905 431.603 260.246 430.771 260.929 430.088C261.654 429.363 262.508 429 263.489 429H289.665C290.689 429 291.542 429.341 292.225 430.024C292.95 430.664 293.313 431.517 293.313 432.584V461H285.633V432.52H280.513V457.416C280.513 458.611 280.129 459.507 279.361 460.104C278.636 460.701 277.718 461 276.609 461ZM311.523 461H299.491C298.467 461 297.592 460.659 296.867 459.976C296.184 459.251 295.843 458.376 295.843 457.352V432.648C295.843 431.624 296.184 430.771 296.867 430.088C297.592 429.363 298.467 429 299.491 429H311.523V432.456H303.459V457.352H311.523V461ZM296.11 419.784C295.171 418.376 294.702 417.096 294.702 415.944C294.702 415.048 294.958 414.344 295.47 413.832C295.982 413.32 296.707 413.064 297.646 413.064H311.47V417.672H302.51L311.47 430.088L304.11 431.624L296.11 419.784Z"/>
</mask>
<path d="M142.712 432.52C142.712 431.325 143.011 430.451 143.608 429.896C144.248 429.299 144.973 429 145.784 429H159.544V432.52H151.16L160.952 454.792C160.952 457.139 160.589 458.76 159.864 459.656C159.181 460.552 158.264 461 157.112 461H154.232V477.128H147.64V461H144.12C143.096 461 142.2 460.723 141.432 460.168C140.664 459.571 140.28 458.781 140.28 457.8V454.408C140.28 452.915 140.792 451.677 141.816 450.696C142.84 449.715 143.907 449.224 145.016 449.224C147.491 449.224 149.624 450.397 151.416 452.744C151.971 453.512 152.611 454.685 153.336 456.264L142.712 432.52ZM146.936 457.8H151.16C150.861 457.16 150.605 456.691 150.392 456.392C149.709 455.411 149.069 454.92 148.472 454.92C147.917 454.92 147.405 455.368 146.936 456.264V457.8ZM165.962 432.52C165.962 431.325 166.261 430.451 166.858 429.896C167.498 429.299 168.223 429 169.034 429H182.794V432.52H174.41L184.202 454.792C184.202 457.139 183.839 458.76 183.114 459.656C182.431 460.552 181.514 461 180.362 461H177.482V477.128H170.89V461H167.37C166.346 461 165.45 460.723 164.682 460.168C163.914 459.571 163.53 458.781 163.53 457.8V454.408C163.53 452.915 164.042 451.677 165.066 450.696C166.09 449.715 167.157 449.224 168.266 449.224C170.741 449.224 172.874 450.397 174.666 452.744C175.221 453.512 175.861 454.685 176.586 456.264L165.962 432.52ZM170.186 457.8H174.41C174.111 457.16 173.855 456.691 173.642 456.392C172.959 455.411 172.319 454.92 171.722 454.92C171.167 454.92 170.655 455.368 170.186 456.264V457.8ZM168.86 419.784C167.921 418.376 167.452 417.096 167.452 415.944C167.452 415.048 167.708 414.344 168.22 413.832C168.732 413.32 169.457 413.064 170.396 413.064H184.22V417.672H175.26L184.22 430.088L176.86 431.624L168.86 419.784ZM187.405 431.048C187.405 430.621 187.682 430.173 188.237 429.704C188.834 429.192 189.56 428.936 190.413 428.936H194.637C195.448 428.936 196.152 429.213 196.749 429.768C197.218 430.195 197.453 430.621 197.453 431.048V438.28C197.453 438.707 197.197 439.133 196.685 439.56C196.173 439.987 195.49 440.2 194.637 440.2H190.413C189.56 440.2 188.834 439.987 188.237 439.56C187.682 439.133 187.405 438.707 187.405 438.28V431.048ZM190.989 438.28H193.677V430.664H190.989V438.28ZM187.405 451.784C187.405 451.357 187.682 450.909 188.237 450.44C188.834 449.928 189.56 449.672 190.413 449.672H194.637C195.448 449.672 196.152 449.949 196.749 450.504C197.218 450.931 197.453 451.357 197.453 451.784V459.016C197.453 459.443 197.197 459.869 196.685 460.296C196.173 460.723 195.49 460.936 194.637 460.936H190.413C189.56 460.936 188.834 460.723 188.237 460.296C187.682 459.869 187.405 459.443 187.405 459.016V451.784ZM190.989 459.016H193.677V451.4H190.989V459.016ZM200.03 432.584C200.03 431.56 200.371 430.707 201.054 430.024C201.737 429.341 202.59 429 203.614 429H229.79C230.771 429 231.625 429.363 232.35 430.088C233.075 430.813 233.438 431.645 233.438 432.584V457.416C233.438 458.44 233.075 459.293 232.35 459.976C231.625 460.659 230.771 461 229.79 461H203.614C202.633 461 201.779 460.659 201.054 459.976C200.371 459.251 200.03 458.397 200.03 457.416V432.584ZM220.638 457.416H225.758V432.52H220.638V457.416ZM207.582 457.416H212.766V432.52H207.582V457.416ZM220.735 424.008H225.919V416.648H220.735V424.008ZM213.119 416.648C213.119 415.624 213.461 414.771 214.143 414.088C214.826 413.405 215.701 413.064 216.767 413.064H230.079C231.103 413.064 231.978 413.427 232.703 414.152C233.386 414.835 233.727 415.667 233.727 416.648V424.008C233.727 425.032 233.386 425.885 232.703 426.568C232.021 427.251 231.146 427.592 230.079 427.592H216.767C215.743 427.592 214.89 427.251 214.207 426.568C213.482 425.843 213.119 424.989 213.119 424.008V416.648ZM253.054 461H239.678C238.654 461 237.779 460.659 237.054 459.976C236.371 459.251 236.03 458.376 236.03 457.352V432.648V429H243.646V457.544H248.83L248.766 429H256.702V457.544C256.702 458.44 256.361 459.251 255.678 459.976C255.038 460.659 254.163 461 253.054 461ZM241.36 419.784C240.421 418.376 239.952 417.096 239.952 415.944C239.952 415.048 240.208 414.344 240.72 413.832C241.232 413.32 241.957 413.064 242.896 413.064H256.72V417.672H247.76L256.72 430.088L249.36 431.624L241.36 419.784ZM267.457 457.416H272.641V432.52H267.457V457.416ZM276.609 461H263.489C262.465 461 261.612 460.659 260.929 459.976C260.246 459.293 259.905 458.44 259.905 457.416V432.584C259.905 431.603 260.246 430.771 260.929 430.088C261.654 429.363 262.508 429 263.489 429H289.665C290.689 429 291.542 429.341 292.225 430.024C292.95 430.664 293.313 431.517 293.313 432.584V461H285.633V432.52H280.513V457.416C280.513 458.611 280.129 459.507 279.361 460.104C278.636 460.701 277.718 461 276.609 461ZM311.523 461H299.491C298.467 461 297.592 460.659 296.867 459.976C296.184 459.251 295.843 458.376 295.843 457.352V432.648C295.843 431.624 296.184 430.771 296.867 430.088C297.592 429.363 298.467 429 299.491 429H311.523V432.456H303.459V457.352H311.523V461ZM296.11 419.784C295.171 418.376 294.702 417.096 294.702 415.944C294.702 415.048 294.958 414.344 295.47 413.832C295.982 413.32 296.707 413.064 297.646 413.064H311.47V417.672H302.51L311.47 430.088L304.11 431.624L296.11 419.784Z" fill="#FBBC05"/>
<path d="M142.712 432.52H141.712V432.734L141.799 432.928L142.712 432.52ZM143.608 429.896L144.288 430.629L144.29 430.627L143.608 429.896ZM159.544 429H160.544V428H159.544V429ZM159.544 432.52V433.52H160.544V432.52H159.544ZM151.16 432.52V431.52H149.628L150.245 432.922L151.16 432.52ZM160.952 454.792H161.952V454.582L161.867 454.39L160.952 454.792ZM159.864 459.656L159.087 459.027L159.077 459.038L159.069 459.05L159.864 459.656ZM154.232 461V460H153.232V461H154.232ZM154.232 477.128V478.128H155.232V477.128H154.232ZM147.64 477.128H146.64V478.128H147.64V477.128ZM147.64 461H148.64V460H147.64V461ZM141.432 460.168L140.818 460.957L140.832 460.968L140.847 460.979L141.432 460.168ZM141.816 450.696L142.508 451.418H142.508L141.816 450.696ZM151.416 452.744L152.227 452.159L152.219 452.148L152.211 452.137L151.416 452.744ZM153.336 456.264L152.427 456.681L154.249 455.856L153.336 456.264ZM146.936 457.8H145.936V458.8H146.936V457.8ZM151.16 457.8V458.8H152.73L152.066 457.377L151.16 457.8ZM150.392 456.392L149.571 456.963L149.578 456.973L150.392 456.392ZM146.936 456.264L146.05 455.8L145.936 456.018V456.264H146.936ZM143.712 432.52C143.712 431.473 143.974 430.921 144.288 430.629L142.928 429.163C142.047 429.981 141.712 431.178 141.712 432.52H143.712ZM144.29 430.627C144.761 430.187 145.248 430 145.784 430V428C144.699 428 143.735 428.41 142.926 429.165L144.29 430.627ZM145.784 430H159.544V428H145.784V430ZM158.544 429V432.52H160.544V429H158.544ZM159.544 431.52H151.16V433.52H159.544V431.52ZM150.245 432.922L160.037 455.194L161.867 454.39L152.075 432.118L150.245 432.922ZM159.952 454.792C159.952 457.108 159.579 458.418 159.087 459.027L160.641 460.285C161.599 459.102 161.952 457.169 161.952 454.792H159.952ZM159.069 459.05C158.58 459.691 157.96 460 157.112 460V462C158.568 462 159.783 461.413 160.659 460.262L159.069 459.05ZM157.112 460H154.232V462H157.112V460ZM153.232 461V477.128H155.232V461H153.232ZM154.232 476.128H147.64V478.128H154.232V476.128ZM148.64 477.128V461H146.64V477.128H148.64ZM147.64 460H144.12V462H147.64V460ZM144.12 460C143.288 460 142.601 459.779 142.017 459.357L140.847 460.979C141.799 461.667 142.904 462 144.12 462V460ZM142.046 459.379C141.524 458.973 141.28 458.476 141.28 457.8H139.28C139.28 459.087 139.804 460.169 140.818 460.957L142.046 459.379ZM141.28 457.8V454.408H139.28V457.8H141.28ZM141.28 454.408C141.28 453.171 141.692 452.2 142.508 451.418L141.124 449.974C139.892 451.155 139.28 452.658 139.28 454.408H141.28ZM142.508 451.418C143.4 450.563 144.231 450.224 145.016 450.224V448.224C143.583 448.224 142.28 448.866 141.124 449.974L142.508 451.418ZM145.016 450.224C147.117 450.224 148.977 451.198 150.621 453.351L152.211 452.137C150.271 449.596 147.864 448.224 145.016 448.224V450.224ZM150.605 453.329C151.103 454.018 151.711 455.122 152.427 456.681L154.245 455.847C153.511 454.249 152.839 453.006 152.227 452.159L150.605 453.329ZM154.249 455.856L143.625 432.112L141.799 432.928L152.423 456.672L154.249 455.856ZM146.936 458.8H151.16V456.8H146.936V458.8ZM152.066 457.377C151.761 456.722 151.474 456.186 151.206 455.811L149.578 456.973C149.737 457.195 149.962 457.598 150.254 458.223L152.066 457.377ZM151.213 455.821C150.838 455.282 150.44 454.825 150.008 454.494C149.574 454.162 149.056 453.92 148.472 453.92V455.92C148.485 455.92 148.586 455.924 148.792 456.082C149 456.242 149.263 456.52 149.571 456.963L151.213 455.821ZM148.472 453.92C147.314 453.92 146.548 454.849 146.05 455.8L147.822 456.728C148.024 456.341 148.201 456.122 148.331 456.009C148.392 455.955 148.432 455.934 148.451 455.926C148.461 455.922 148.466 455.921 148.468 455.92C148.469 455.92 148.47 455.92 148.472 455.92V453.92ZM145.936 456.264V457.8H147.936V456.264H145.936ZM165.962 432.52H164.962V432.734L165.049 432.928L165.962 432.52ZM166.858 429.896L167.538 430.629L167.54 430.627L166.858 429.896ZM182.794 429H183.794V428H182.794V429ZM182.794 432.52V433.52H183.794V432.52H182.794ZM174.41 432.52V431.52H172.878L173.495 432.922L174.41 432.52ZM184.202 454.792H185.202V454.582L185.117 454.39L184.202 454.792ZM183.114 459.656L182.337 459.027L182.327 459.038L182.319 459.05L183.114 459.656ZM177.482 461V460H176.482V461H177.482ZM177.482 477.128V478.128H178.482V477.128H177.482ZM170.89 477.128H169.89V478.128H170.89V477.128ZM170.89 461H171.89V460H170.89V461ZM164.682 460.168L164.068 460.957L164.082 460.968L164.097 460.979L164.682 460.168ZM165.066 450.696L165.758 451.418L165.066 450.696ZM174.666 452.744L175.477 452.159L175.469 452.148L175.461 452.137L174.666 452.744ZM176.586 456.264L175.677 456.681L177.499 455.856L176.586 456.264ZM170.186 457.8H169.186V458.8H170.186V457.8ZM174.41 457.8V458.8H175.98L175.316 457.377L174.41 457.8ZM173.642 456.392L172.821 456.963L172.828 456.973L173.642 456.392ZM170.186 456.264L169.3 455.8L169.186 456.018V456.264H170.186ZM166.962 432.52C166.962 431.473 167.224 430.921 167.538 430.629L166.178 429.163C165.297 429.981 164.962 431.178 164.962 432.52H166.962ZM167.54 430.627C168.011 430.187 168.498 430 169.034 430V428C167.949 428 166.985 428.41 166.176 429.165L167.54 430.627ZM169.034 430H182.794V428H169.034V430ZM181.794 429V432.52H183.794V429H181.794ZM182.794 431.52H174.41V433.52H182.794V431.52ZM173.495 432.922L183.287 455.194L185.117 454.39L175.325 432.118L173.495 432.922ZM183.202 454.792C183.202 457.108 182.829 458.418 182.337 459.027L183.891 460.285C184.849 459.102 185.202 457.169 185.202 454.792H183.202ZM182.319 459.05C181.83 459.691 181.21 460 180.362 460V462C181.818 462 183.033 461.413 183.909 460.262L182.319 459.05ZM180.362 460H177.482V462H180.362V460ZM176.482 461V477.128H178.482V461H176.482ZM177.482 476.128H170.89V478.128H177.482V476.128ZM171.89 477.128V461H169.89V477.128H171.89ZM170.89 460H167.37V462H170.89V460ZM167.37 460C166.538 460 165.851 459.779 165.267 459.357L164.097 460.979C165.049 461.667 166.154 462 167.37 462V460ZM165.296 459.379C164.774 458.973 164.53 458.476 164.53 457.8H162.53C162.53 459.087 163.054 460.169 164.068 460.957L165.296 459.379ZM164.53 457.8V454.408H162.53V457.8H164.53ZM164.53 454.408C164.53 453.171 164.942 452.2 165.758 451.418L164.374 449.974C163.142 451.155 162.53 452.658 162.53 454.408H164.53ZM165.758 451.418C166.65 450.563 167.481 450.224 168.266 450.224V448.224C166.833 448.224 165.53 448.866 164.374 449.974L165.758 451.418ZM168.266 450.224C170.367 450.224 172.227 451.198 173.871 453.351L175.461 452.137C173.521 449.596 171.114 448.224 168.266 448.224V450.224ZM173.855 453.329C174.353 454.018 174.961 455.122 175.677 456.681L177.495 455.847C176.761 454.249 176.089 453.006 175.477 452.159L173.855 453.329ZM177.499 455.856L166.875 432.112L165.049 432.928L175.673 456.672L177.499 455.856ZM170.186 458.8H174.41V456.8H170.186V458.8ZM175.316 457.377C175.011 456.722 174.724 456.186 174.456 455.811L172.828 456.973C172.987 457.195 173.212 457.598 173.504 458.223L175.316 457.377ZM174.463 455.821C174.088 455.282 173.69 454.825 173.258 454.494C172.824 454.162 172.306 453.92 171.722 453.92V455.92C171.735 455.92 171.836 455.924 172.042 456.082C172.25 456.242 172.513 456.52 172.821 456.963L174.463 455.821ZM171.722 453.92C170.564 453.92 169.798 454.849 169.3 455.8L171.072 456.728C171.274 456.341 171.451 456.122 171.581 456.009C171.642 455.955 171.682 455.934 171.701 455.926C171.711 455.922 171.716 455.921 171.718 455.92C171.719 455.92 171.72 455.92 171.722 455.92V453.92ZM169.186 456.264V457.8H171.186V456.264H169.186ZM168.86 419.784L168.028 420.339L168.031 420.344L168.86 419.784ZM168.22 413.832L167.513 413.125L167.513 413.125L168.22 413.832ZM184.22 413.064H185.22V412.064H184.22V413.064ZM184.22 417.672V418.672H185.22V417.672H184.22ZM175.26 417.672V416.672H173.305L174.449 418.257L175.26 417.672ZM184.22 430.088L184.424 431.067L185.932 430.752L185.031 429.503L184.22 430.088ZM176.86 431.624L176.031 432.184L176.407 432.74L177.064 432.603L176.86 431.624ZM169.692 419.229C168.814 417.913 168.452 416.826 168.452 415.944H166.452C166.452 417.366 167.028 418.839 168.028 420.339L169.692 419.229ZM168.452 415.944C168.452 415.246 168.645 414.821 168.927 414.539L167.513 413.125C166.771 413.867 166.452 414.85 166.452 415.944H168.452ZM168.927 414.539C169.201 414.266 169.641 414.064 170.396 414.064V412.064C169.274 412.064 168.263 412.374 167.513 413.125L168.927 414.539ZM170.396 414.064H184.22V412.064H170.396V414.064ZM183.22 413.064V417.672H185.22V413.064H183.22ZM184.22 416.672H175.26V418.672H184.22V416.672ZM174.449 418.257L183.409 430.673L185.031 429.503L176.071 417.087L174.449 418.257ZM184.016 429.109L176.656 430.645L177.064 432.603L184.424 431.067L184.016 429.109ZM177.689 431.064L169.689 419.224L168.031 420.344L176.031 432.184L177.689 431.064ZM188.237 429.704L188.883 430.467L188.888 430.463L188.237 429.704ZM196.749 429.768L196.069 430.501L196.076 430.508L196.749 429.768ZM196.685 439.56L197.325 440.328L196.685 439.56ZM188.237 439.56L187.627 440.353L187.641 440.363L187.656 440.374L188.237 439.56ZM190.989 438.28H189.989V439.28H190.989V438.28ZM193.677 438.28V439.28H194.677V438.28H193.677ZM193.677 430.664H194.677V429.664H193.677V430.664ZM190.989 430.664V429.664H189.989V430.664H190.989ZM188.237 450.44L188.883 451.203L188.888 451.199L188.237 450.44ZM196.749 450.504L196.069 451.237L196.076 451.244L196.749 450.504ZM196.685 460.296L196.045 459.528L196.685 460.296ZM188.237 460.296L187.627 461.089L187.641 461.099L187.656 461.11L188.237 460.296ZM190.989 459.016H189.989V460.016H190.989V459.016ZM193.677 459.016V460.016H194.677V459.016H193.677ZM193.677 451.4H194.677V450.4H193.677V451.4ZM190.989 451.4V450.4H189.989V451.4H190.989ZM188.405 431.048C188.405 431.06 188.4 431.021 188.463 430.918C188.53 430.81 188.658 430.658 188.883 430.467L187.591 428.941C186.964 429.472 186.405 430.174 186.405 431.048H188.405ZM188.888 430.463C189.288 430.12 189.777 429.936 190.413 429.936V427.936C189.343 427.936 188.381 428.264 187.586 428.945L188.888 430.463ZM190.413 429.936H194.637V427.936H190.413V429.936ZM194.637 429.936C195.194 429.936 195.655 430.117 196.069 430.501L197.429 429.035C196.648 428.31 195.702 427.936 194.637 427.936V429.936ZM196.076 430.508C196.439 430.838 196.453 431.017 196.453 431.048H198.453C198.453 430.226 197.997 429.551 197.422 429.028L196.076 430.508ZM196.453 431.048V438.28H198.453V431.048H196.453ZM196.453 438.28C196.453 438.284 196.454 438.321 196.404 438.406C196.349 438.496 196.242 438.627 196.045 438.792L197.325 440.328C197.937 439.818 198.453 439.137 198.453 438.28H196.453ZM196.045 438.792C195.758 439.031 195.323 439.2 194.637 439.2V441.2C195.657 441.2 196.588 440.943 197.325 440.328L196.045 438.792ZM194.637 439.2H190.413V441.2H194.637V439.2ZM190.413 439.2C189.733 439.2 189.22 439.033 188.818 438.746L187.656 440.374C188.449 440.94 189.386 441.2 190.413 441.2V439.2ZM188.847 438.767C188.628 438.599 188.51 438.465 188.451 438.375C188.398 438.292 188.405 438.265 188.405 438.28H186.405C186.405 439.172 186.983 439.857 187.627 440.353L188.847 438.767ZM188.405 438.28V431.048H186.405V438.28H188.405ZM190.989 439.28H193.677V437.28H190.989V439.28ZM194.677 438.28V430.664H192.677V438.28H194.677ZM193.677 429.664H190.989V431.664H193.677V429.664ZM189.989 430.664V438.28H191.989V430.664H189.989ZM188.405 451.784C188.405 451.796 188.4 451.757 188.463 451.654C188.53 451.546 188.658 451.394 188.883 451.203L187.591 449.677C186.964 450.208 186.405 450.91 186.405 451.784H188.405ZM188.888 451.199C189.288 450.856 189.777 450.672 190.413 450.672V448.672C189.343 448.672 188.381 449 187.586 449.681L188.888 451.199ZM190.413 450.672H194.637V448.672H190.413V450.672ZM194.637 450.672C195.194 450.672 195.655 450.853 196.069 451.237L197.429 449.771C196.648 449.046 195.702 448.672 194.637 448.672V450.672ZM196.076 451.244C196.439 451.574 196.453 451.753 196.453 451.784H198.453C198.453 450.962 197.997 450.287 197.422 449.764L196.076 451.244ZM196.453 451.784V459.016H198.453V451.784H196.453ZM196.453 459.016C196.453 459.02 196.454 459.057 196.404 459.142C196.349 459.232 196.242 459.363 196.045 459.528L197.325 461.064C197.937 460.554 198.453 459.873 198.453 459.016H196.453ZM196.045 459.528C195.758 459.767 195.323 459.936 194.637 459.936V461.936C195.657 461.936 196.588 461.679 197.325 461.064L196.045 459.528ZM194.637 459.936H190.413V461.936H194.637V459.936ZM190.413 459.936C189.733 459.936 189.22 459.769 188.818 459.482L187.656 461.11C188.449 461.676 189.386 461.936 190.413 461.936V459.936ZM188.847 459.503C188.628 459.335 188.51 459.201 188.451 459.111C188.398 459.028 188.405 459.001 188.405 459.016H186.405C186.405 459.908 186.983 460.593 187.627 461.089L188.847 459.503ZM188.405 459.016V451.784H186.405V459.016H188.405ZM190.989 460.016H193.677V458.016H190.989V460.016ZM194.677 459.016V451.4H192.677V459.016H194.677ZM193.677 450.4H190.989V452.4H193.677V450.4ZM189.989 451.4V459.016H191.989V451.4H189.989ZM201.054 430.024L200.347 429.317L201.054 430.024ZM201.054 459.976L200.326 460.661L200.347 460.683L200.369 460.704L201.054 459.976ZM220.638 457.416H219.638V458.416H220.638V457.416ZM225.758 457.416V458.416H226.758V457.416H225.758ZM225.758 432.52H226.758V431.52H225.758V432.52ZM220.638 432.52V431.52H219.638V432.52H220.638ZM207.582 457.416H206.582V458.416H207.582V457.416ZM212.766 457.416V458.416H213.766V457.416H212.766ZM212.766 432.52H213.766V431.52H212.766V432.52ZM207.582 432.52V431.52H206.582V432.52H207.582ZM201.03 432.584C201.03 431.807 201.278 431.214 201.761 430.731L200.347 429.317C199.464 430.199 199.03 431.313 199.03 432.584H201.03ZM201.761 430.731C202.244 430.248 202.837 430 203.614 430V428C202.343 428 201.229 428.434 200.347 429.317L201.761 430.731ZM203.614 430H229.79V428H203.614V430ZM229.79 430C230.493 430 231.096 430.248 231.643 430.795L233.057 429.381C232.154 428.477 231.05 428 229.79 428V430ZM231.643 430.795C232.2 431.352 232.438 431.936 232.438 432.584H234.438C234.438 431.354 233.951 430.275 233.057 429.381L231.643 430.795ZM232.438 432.584V457.416H234.438V432.584H232.438ZM232.438 457.416C232.438 458.173 232.183 458.76 231.665 459.248L233.035 460.704C233.968 459.827 234.438 458.707 234.438 457.416H232.438ZM231.665 459.248C231.122 459.759 230.512 460 229.79 460V462C231.03 462 232.128 461.559 233.035 460.704L231.665 459.248ZM229.79 460H203.614V462H229.79V460ZM203.614 460C202.892 460 202.282 459.759 201.739 459.248L200.369 460.704C201.276 461.559 202.374 462 203.614 462V460ZM201.782 459.291C201.271 458.748 201.03 458.138 201.03 457.416H199.03C199.03 458.656 199.471 459.754 200.326 460.661L201.782 459.291ZM201.03 457.416V432.584H199.03V457.416H201.03ZM220.638 458.416H225.758V456.416H220.638V458.416ZM226.758 457.416V432.52H224.758V457.416H226.758ZM225.758 431.52H220.638V433.52H225.758V431.52ZM219.638 432.52V457.416H221.638V432.52H219.638ZM207.582 458.416H212.766V456.416H207.582V458.416ZM213.766 457.416V432.52H211.766V457.416H213.766ZM212.766 431.52H207.582V433.52H212.766V431.52ZM206.582 432.52V457.416H208.582V432.52H206.582ZM220.735 424.008H219.735V425.008H220.735V424.008ZM225.92 424.008V425.008H226.92V424.008H225.92ZM225.92 416.648H226.92V415.648H225.92V416.648ZM220.735 416.648V415.648H219.735V416.648H220.735ZM214.144 414.088L213.436 413.381V413.381L214.144 414.088ZM232.703 414.152L233.411 413.445V413.445L232.703 414.152ZM232.703 426.568L231.996 425.861V425.861L232.703 426.568ZM214.207 426.568L214.915 425.861V425.861L214.207 426.568ZM220.735 425.008H225.92V423.008H220.735V425.008ZM226.92 424.008V416.648H224.92V424.008H226.92ZM225.92 415.648H220.735V417.648H225.92V415.648ZM219.735 416.648V424.008H221.735V416.648H219.735ZM214.119 416.648C214.119 415.871 214.368 415.278 214.851 414.795L213.436 413.381C212.554 414.263 212.119 415.377 212.119 416.648H214.119ZM214.851 414.795C215.325 414.321 215.936 414.064 216.768 414.064V412.064C215.466 412.064 214.327 412.49 213.436 413.381L214.851 414.795ZM216.768 414.064H230.079V412.064H216.768V414.064ZM230.079 414.064C230.838 414.064 231.458 414.321 231.996 414.859L233.411 413.445C232.498 412.532 231.369 412.064 230.079 412.064V414.064ZM231.996 414.859C232.488 415.351 232.728 415.927 232.728 416.648H234.728C234.728 415.406 234.284 414.319 233.411 413.445L231.996 414.859ZM232.728 416.648V424.008H234.728V416.648H232.728ZM232.728 424.008C232.728 424.785 232.479 425.378 231.996 425.861L233.411 427.275C234.293 426.393 234.728 425.279 234.728 424.008H232.728ZM231.996 425.861C231.522 426.335 230.911 426.592 230.079 426.592V428.592C231.381 428.592 232.52 428.166 233.411 427.275L231.996 425.861ZM230.079 426.592H216.768V428.592H230.079V426.592ZM216.768 426.592C215.991 426.592 215.397 426.344 214.915 425.861L213.5 427.275C214.383 428.158 215.496 428.592 216.768 428.592V426.592ZM214.915 425.861C214.367 425.314 214.119 424.711 214.119 424.008H212.119C212.119 425.268 212.597 426.372 213.5 427.275L214.915 425.861ZM214.119 424.008V416.648H212.119V424.008H214.119ZM237.054 459.976L236.326 460.661L236.347 460.683L236.369 460.704L237.054 459.976ZM236.03 429V428H235.03V429H236.03ZM243.646 429H244.646V428H243.646V429ZM243.646 457.544H242.646V458.544H243.646V457.544ZM248.83 457.544V458.544H249.832L249.83 457.542L248.83 457.544ZM248.766 429V428H247.764L247.766 429.002L248.766 429ZM256.702 429H257.702V428H256.702V429ZM255.678 459.976L254.95 459.291L254.948 459.292L255.678 459.976ZM253.054 460H239.678V462H253.054V460ZM239.678 460C238.901 460 238.274 459.751 237.739 459.248L236.369 460.704C237.285 461.567 238.407 462 239.678 462V460ZM237.782 459.291C237.279 458.756 237.03 458.129 237.03 457.352H235.03C235.03 458.623 235.463 459.745 236.326 460.661L237.782 459.291ZM237.03 457.352V432.648H235.03V457.352H237.03ZM237.03 432.648V429H235.03V432.648H237.03ZM236.03 430H243.646V428H236.03V430ZM242.646 429V457.544H244.646V429H242.646ZM243.646 458.544H248.83V456.544H243.646V458.544ZM249.83 457.542L249.766 428.998L247.766 429.002L247.83 457.546L249.83 457.542ZM248.766 430H256.702V428H248.766V430ZM255.702 429V457.544H257.702V429H255.702ZM255.702 457.544C255.702 458.156 255.479 458.728 254.95 459.291L256.406 460.661C257.242 459.773 257.702 458.724 257.702 457.544H255.702ZM254.948 459.292C254.532 459.736 253.943 460 253.054 460V462C254.384 462 255.544 461.582 256.408 460.66L254.948 459.292ZM241.36 419.784L240.528 420.339L240.531 420.344L241.36 419.784ZM240.72 413.832L240.013 413.125V413.125L240.72 413.832ZM256.72 413.064H257.72V412.064H256.72V413.064ZM256.72 417.672V418.672H257.72V417.672H256.72ZM247.76 417.672V416.672H245.805L246.949 418.257L247.76 417.672ZM256.72 430.088L256.924 431.067L258.432 430.752L257.531 429.503L256.72 430.088ZM249.36 431.624L248.531 432.184L248.907 432.74L249.564 432.603L249.36 431.624ZM242.192 419.229C241.314 417.913 240.952 416.826 240.952 415.944H238.952C238.952 417.366 239.528 418.839 240.528 420.339L242.192 419.229ZM240.952 415.944C240.952 415.246 241.145 414.821 241.427 414.539L240.013 413.125C239.271 413.867 238.952 414.85 238.952 415.944H240.952ZM241.427 414.539C241.701 414.266 242.141 414.064 242.896 414.064V412.064C241.774 412.064 240.763 412.374 240.013 413.125L241.427 414.539ZM242.896 414.064H256.72V412.064H242.896V414.064ZM255.72 413.064V417.672H257.72V413.064H255.72ZM256.72 416.672H247.76V418.672H256.72V416.672ZM246.949 418.257L255.909 430.673L257.531 429.503L248.571 417.087L246.949 418.257ZM256.516 429.109L249.156 430.645L249.564 432.603L256.924 431.067L256.516 429.109ZM250.189 431.064L242.189 419.224L240.531 420.344L248.531 432.184L250.189 431.064ZM267.457 457.416H266.457V458.416H267.457V457.416ZM272.641 457.416V458.416H273.641V457.416H272.641ZM272.641 432.52H273.641V431.52H272.641V432.52ZM267.457 432.52V431.52H266.457V432.52H267.457ZM260.929 459.976L261.636 459.269L260.929 459.976ZM260.929 430.088L260.222 429.381L260.929 430.088ZM292.225 430.024L291.518 430.731L291.54 430.753L291.563 430.774L292.225 430.024ZM293.313 461V462H294.313V461H293.313ZM285.633 461H284.633V462H285.633V461ZM285.633 432.52H286.633V431.52H285.633V432.52ZM280.513 432.52V431.52H279.513V432.52H280.513ZM279.361 460.104L278.747 459.315L278.736 459.323L278.725 459.332L279.361 460.104ZM267.457 458.416H272.641V456.416H267.457V458.416ZM273.641 457.416V432.52H271.641V457.416H273.641ZM272.641 431.52H267.457V433.52H272.641V431.52ZM266.457 432.52V457.416H268.457V432.52H266.457ZM276.609 460H263.489V462H276.609V460ZM263.489 460C262.712 460 262.119 459.752 261.636 459.269L260.222 460.683C261.104 461.566 262.218 462 263.489 462V460ZM261.636 459.269C261.153 458.786 260.905 458.193 260.905 457.416H258.905C258.905 458.687 259.339 459.801 260.222 460.683L261.636 459.269ZM260.905 457.416V432.584H258.905V457.416H260.905ZM260.905 432.584C260.905 431.863 261.144 431.287 261.636 430.795L260.222 429.381C259.348 430.255 258.905 431.342 258.905 432.584H260.905ZM261.636 430.795C262.183 430.248 262.786 430 263.489 430V428C262.229 428 261.125 428.477 260.222 429.381L261.636 430.795ZM263.489 430H289.665V428H263.489V430ZM289.665 430C290.442 430 291.035 430.248 291.518 430.731L292.932 429.317C292.05 428.434 290.936 428 289.665 428V430ZM291.563 430.774C292.05 431.203 292.313 431.771 292.313 432.584H294.313C294.313 431.263 293.851 430.125 292.887 429.274L291.563 430.774ZM292.313 432.584V461H294.313V432.584H292.313ZM293.313 460H285.633V462H293.313V460ZM286.633 461V432.52H284.633V461H286.633ZM285.633 431.52H280.513V433.52H285.633V431.52ZM279.513 432.52V457.416H281.513V432.52H279.513ZM279.513 457.416C279.513 458.38 279.216 458.95 278.747 459.315L279.975 460.893C281.042 460.063 281.513 458.841 281.513 457.416H279.513ZM278.725 459.332C278.21 459.756 277.53 460 276.609 460V462C277.906 462 279.061 461.646 279.997 460.876L278.725 459.332ZM311.523 461V462H312.523V461H311.523ZM296.867 459.976L296.138 460.661L296.159 460.683L296.181 460.704L296.867 459.976ZM296.867 430.088L296.159 429.381L296.867 430.088ZM311.523 429H312.523V428H311.523V429ZM311.523 432.456V433.456H312.523V432.456H311.523ZM303.458 432.456V431.456H302.458V432.456H303.458ZM303.458 457.352H302.458V458.352H303.458V457.352ZM311.523 457.352H312.523V456.352H311.523V457.352ZM311.523 460H299.49V462H311.523V460ZM299.49 460C298.713 460 298.086 459.751 297.552 459.248L296.181 460.704C297.098 461.567 298.22 462 299.49 462V460ZM297.595 459.291C297.092 458.756 296.842 458.129 296.842 457.352H294.842C294.842 458.623 295.276 459.745 296.138 460.661L297.595 459.291ZM296.842 457.352V432.648H294.842V457.352H296.842ZM296.842 432.648C296.842 431.871 297.091 431.278 297.574 430.795L296.159 429.381C295.277 430.263 294.842 431.377 294.842 432.648H296.842ZM297.574 430.795C298.112 430.257 298.732 430 299.49 430V428C298.201 428 297.072 428.468 296.159 429.381L297.574 430.795ZM299.49 430H311.523V428H299.49V430ZM310.523 429V432.456H312.523V429H310.523ZM311.523 431.456H303.458V433.456H311.523V431.456ZM302.458 432.456V457.352H304.458V432.456H302.458ZM303.458 458.352H311.523V456.352H303.458V458.352ZM310.523 457.352V461H312.523V457.352H310.523ZM296.11 419.784L295.278 420.339L295.281 420.344L296.11 419.784ZM295.47 413.832L294.763 413.125V413.125L295.47 413.832ZM311.47 413.064H312.47V412.064H311.47V413.064ZM311.47 417.672V418.672H312.47V417.672H311.47ZM302.51 417.672V416.672H300.555L301.699 418.257L302.51 417.672ZM311.47 430.088L311.674 431.067L313.182 430.752L312.281 429.503L311.47 430.088ZM304.11 431.624L303.281 432.184L303.657 432.74L304.314 432.603L304.11 431.624ZM296.942 419.229C296.064 417.913 295.702 416.826 295.702 415.944H293.702C293.702 417.366 294.278 418.839 295.278 420.339L296.942 419.229ZM295.702 415.944C295.702 415.246 295.895 414.821 296.177 414.539L294.763 413.125C294.021 413.867 293.702 414.85 293.702 415.944H295.702ZM296.177 414.539C296.451 414.266 296.891 414.064 297.646 414.064V412.064C296.524 412.064 295.513 412.374 294.763 413.125L296.177 414.539ZM297.646 414.064H311.47V412.064H297.646V414.064ZM310.47 413.064V417.672H312.47V413.064H310.47ZM311.47 416.672H302.51V418.672H311.47V416.672ZM301.699 418.257L310.659 430.673L312.281 429.503L303.321 417.087L301.699 418.257ZM311.266 429.109L303.906 430.645L304.314 432.603L311.674 431.067L311.266 429.109ZM304.939 431.064L296.939 419.224L295.281 420.344L303.281 432.184L304.939 431.064Z" fill="#FBBC05" mask="url(#path-10-outside-1_568_15)"/>
<path d="M280.082 393.286V388.592L280.49 387.776V385.939L281 384.918H291.612L292.122 385.633V387.776L292.531 388.592V390.429L293.653 390.224V388.592H296.816V392.98H297.633V390.224H303.653V389.51H304.163V388.796C304.197 388.864 304.286 388.878 304.367 388.388C304.449 387.898 304.401 387.367 304.367 387.163C304.299 387.707 304.163 388.592 304.163 387.776C304.163 386.959 304.027 386.007 303.959 385.633V381.959L304.163 381.143V380.429L303.959 379.408V380.224L303.653 380.837L302.939 381.143L302.02 381.551L301.714 381.959H300.184V380.837V380.224L300.388 379.714L300.184 379.408V378.796V378.388L299.877 379.408L299.571 380.02L298.041 380.837H296.408V380.02L296.612 379.204L296.408 378.592V377.878V377.265V376.755L296.102 377.265L295.694 378.082L295.082 378.796L294.061 379.408H293.245L291.51 379.51L292.326 379.204L292.531 377.878V376.755C292.428 376.619 292.286 376.224 292.531 375.735C292.775 375.245 292.633 374.782 292.531 374.612L292.837 374V373.592L292.326 374.204L292.122 375.122L291.612 375.531L291.102 375.939H290.796L289.367 374.612H290.388V372.878L290.592 372.163L290.796 371.449L290.388 370.735V370.02L289.979 370.735L289.367 371.449L288.959 371.755L287.939 371.143L288.755 370.735C288.687 370.531 288.592 370 288.755 369.51C288.959 368.898 289.163 368.592 288.959 368.184C288.143 368.51 287.599 368.456 287.428 368.388V367.98L287.939 367.673V366.959L288.245 366.245V365.122L287.428 365.939L286.918 365.633V365.122H287.633L287.428 364.51L286.918 364.102L287.122 363.184L286.918 363.49L286.408 363.184L286.714 362.163V361.449V360.735V359.816V358.796L286.408 358.286V357.673V357.061V356.347V355.939H286.918V355.224L286.714 354.408L286.408 353.694L286.204 353.082L286 349L285.694 353.082L285.286 353.694L284.979 354.408V355.224V355.939H285.286C285.354 355.973 285.49 356.143 285.49 356.551V357.98L285.286 358.49V359.204V360.02V360.735V361.449V362.163V362.776V363.184L284.979 363.49L284.775 363.184V364.102L284.469 364.714V365.327L284.979 365.122V365.633L284.775 365.939L283.653 365.122V365.939L283.857 366.245V366.755V367.367V367.673L284.469 368.184L283.857 368.592L283.347 368.388L283.143 367.98V368.592L282.837 369.204V369.51L283.143 370.02L283.347 370.531L283.857 371.143L283.143 371.755L282.428 371.449L281.816 370.735L281.51 370.327V371.143L281.306 371.755V372.163L281.51 372.878V373.592H281.816L282.02 374.612L282.428 374.816L281.51 375.327L280.592 375.735L279.877 375.122L279.469 374.204L279.163 373.592V374.612V375.327V375.939V376.755V377.571L280.082 379.408L278.245 379.51L277.122 379.204L276.408 378.796L275.898 378.082L275.592 377.061V378.388L275.388 379.204V379.714L275.592 380.429L275.388 380.837L273.653 380.633L272.735 380.02L272.104 379.75C272.079 379.759 272.048 379.742 272.02 379.714L272.104 379.75C272.171 379.726 272.199 379.511 272.02 378.796C271.775 377.816 271.646 378.66 271.612 379.204L271.408 380.02L271.612 380.633V381.551V381.959H270.184L269.571 381.347H268.857L268.347 380.837L268.041 380.429V379.714V379.408L267.735 380.02L267.531 380.837L267.735 381.959V382.367V385.429L268.041 385.939L267.735 387.367L267.531 387.061V387.98L267.735 388.796V389.612H268.347C268.755 389.612 269.061 390.361 269.163 390.735H274.979L275.898 389.612H278.755V393.286H280.082Z" fill="white"/>
<path d="M285.49 356.551C285.49 356.143 285.354 355.973 285.286 355.939H284.979V355.224V354.408L285.286 353.694L285.694 353.082L286 349L286.204 353.082L286.408 353.694L286.714 354.408L286.918 355.224V355.939H286.408V356.347V357.061V357.673V358.286L286.714 358.796V359.816V360.735V361.449V362.163L286.408 363.184L286.918 363.49L287.122 363.184L286.918 364.102L287.428 364.51L287.633 365.122H286.918V365.633L287.428 365.939L288.245 365.122V366.245L287.939 366.959V367.673L287.428 367.98V368.388C287.599 368.456 288.143 368.51 288.959 368.184C289.163 368.592 288.959 368.898 288.755 369.51C288.592 370 288.687 370.531 288.755 370.735L287.939 371.143L288.959 371.755L289.367 371.449L289.979 370.735L290.388 370.02V370.735L290.796 371.449L290.592 372.163L290.388 372.878V374.612H289.367L290.796 375.939H291.102L291.612 375.531L292.122 375.122L292.326 374.204L292.837 373.592V374L292.531 374.612C292.633 374.782 292.775 375.245 292.531 375.735C292.286 376.224 292.428 376.619 292.531 376.755V377.878L292.326 379.204L291.51 379.51L293.245 379.408H294.061L295.082 378.796L295.694 378.082L296.102 377.265L296.408 376.755V377.265V377.878V378.592L296.612 379.204L296.408 380.02V380.837H298.041L299.571 380.02L299.877 379.408L300.184 378.388V378.796V379.408L300.388 379.714L300.184 380.224V380.837V381.959H301.714L302.02 381.551L302.939 381.143L303.653 380.837L303.959 380.224V379.408L304.163 380.429V381.143L303.959 381.959V385.633C304.027 386.007 304.163 386.959 304.163 387.776C304.163 388.592 304.299 387.707 304.367 387.163C304.401 387.367 304.449 387.898 304.367 388.388C304.286 388.878 304.197 388.864 304.163 388.796V389.51H303.653V390.224H297.633V392.98H296.816V388.592H293.653V390.224L292.531 390.429V388.592L292.122 387.776V385.633L291.612 384.918H281L280.49 385.939V387.776L280.082 388.592V393.286H278.755V389.612H275.898L274.979 390.735H269.163C269.061 390.361 268.755 389.612 268.347 389.612M285.49 356.551C285.49 356.959 285.49 357.673 285.49 357.98M285.49 356.551V357.98M285.49 357.98L285.286 358.49V359.204V360.02V360.735V361.449V362.163V362.776V363.184L284.979 363.49L284.775 363.184V364.102L284.469 364.714V365.327L284.979 365.122V365.633L284.775 365.939L283.653 365.122V365.939L283.857 366.245V366.755V367.367V367.673L284.469 368.184L283.857 368.592L283.347 368.388L283.143 367.98V368.592L282.837 369.204V369.51L283.143 370.02L283.347 370.531L283.857 371.143L283.143 371.755L282.428 371.449L281.816 370.735L281.51 370.327V371.143L281.306 371.755V372.163L281.51 372.878V373.592H281.816L282.02 374.612L282.428 374.816L281.51 375.327L280.592 375.735L279.877 375.122L279.469 374.204L279.163 373.592V374.612V375.327V375.939V376.755V377.571L280.082 379.408L278.245 379.51L277.122 379.204L276.408 378.796L275.898 378.082L275.592 377.061V378.388L275.388 379.204V379.714L275.592 380.429L275.388 380.837L273.653 380.633L272.735 380.02L272.104 379.75M267.735 389.612V388.796L267.531 387.98V387.061L267.735 387.367L268.041 385.939L267.735 385.429V382.367V381.959L267.531 380.837L267.735 380.02L268.041 379.408V379.714V380.429L268.347 380.837L268.857 381.347H269.571L270.184 381.959H271.612V381.551V380.633L271.408 380.02L271.612 379.204C271.646 378.66 271.775 377.816 272.02 378.796C272.199 379.511 272.171 379.726 272.104 379.75M267.735 389.612C267.769 389.612 267.939 389.612 268.347 389.612M267.735 389.612H268.347M272.104 379.75C272.079 379.759 272.048 379.742 272.02 379.714L272.104 379.75Z" stroke="#FBBC05"/>
<path d="M261 405.224V402.367V398.796L261.714 396.449L262.429 395.836V390.326H265.592L267.224 391.755V395.836H269.265V391.755L270.286 390.326H271.51L272.735 391.755V395.836H274.878V391.755L276 390.326H277.531L278.857 391.755V395.836H281.204V391.755L281.918 390.326H283.653L284.673 391.755V395.632H286.816V391.959L287.939 389.816H289.469L290.796 391.755V395.428H292.735V391.755L293.857 389.816H295.388L296.816 391.551V395.428H298.755V391.551L299.98 389.816H301.51L302.939 391.551L303.041 395.326L304.571 395.428V391.551L306 389.816H309.265V395.428L310.184 395.632L310.694 399.306V402.163L311 405.326L261 405.224Z" fill="white" stroke="#FBBC05"/>
</g>
<defs>
<filter id="filter0_i_568_15" x="3" y="0" width="446" height="896" filterUnits="userSpaceOnUse" color-interpolation-filters="sRGB">
<feFlood flood-opacity="0" result="BackgroundImageFix"/>
<feBlend mode="normal" in="SourceGraphic" in2="BackgroundImageFix" result="shape"/>
<feColorMatrix in="SourceAlpha" type="matrix" values="0 0 0 0 0 0 0 0 0 0 0 0 0 0 0 0 0 0 127 0" result="hardAlpha"/>
<feOffset/>
<feGaussianBlur stdDeviation="4"/>
<feComposite in2="hardAlpha" operator="arithmetic" k2="-1" k3="1"/>
<feColorMatrix type="matrix" values="0 0 0 0 1 0 0 0 0 1 0 0 0 0 1 0 0 0 0.9 0"/>
<feBlend mode="normal" in2="shape" result="effect1_innerShadow_568_15"/>
</filter>
<filter id="filter1_i_568_15" x="0" y="152" width="4" height="30" filterUnits="userSpaceOnUse" color-interpolation-filters="sRGB">
<feFlood flood-opacity="0" result="BackgroundImageFix"/>
<feBlend mode="normal" in="SourceGraphic" in2="BackgroundImageFix" result="shape"/>
<feColorMatrix in="SourceAlpha" type="matrix" values="0 0 0 0 0 0 0 0 0 0 0 0 0 0 0 0 0 0 127 0" result="hardAlpha"/>
<feOffset dx="1"/>
<feGaussianBlur stdDeviation="1"/>
<feComposite in2="hardAlpha" operator="arithmetic" k2="-1" k3="1"/>
<feColorMatrix type="matrix" values="0 0 0 0 1 0 0 0 0 1 0 0 0 0 1 0 0 0 0.5 0"/>
<feBlend mode="normal" in2="shape" result="effect1_innerShadow_568_15"/>
</filter>
<filter id="filter2_i_568_15" x="0" y="214" width="4" height="64" filterUnits="userSpaceOnUse" color-interpolation-filters="sRGB">
<feFlood flood-opacity="0" result="BackgroundImageFix"/>
<feBlend mode="normal" in="SourceGraphic" in2="BackgroundImageFix" result="shape"/>
<feColorMatrix in="SourceAlpha" type="matrix" values="0 0 0 0 0 0 0 0 0 0 0 0 0 0 0 0 0 0 127 0" result="hardAlpha"/>
<feOffset dx="1"/>
<feGaussianBlur stdDeviation="1"/>
<feComposite in2="hardAlpha" operator="arithmetic" k2="-1" k3="1"/>
<feColorMatrix type="matrix" values="0 0 0 0 1 0 0 0 0 1 0 0 0 0 1 0 0 0 0.5 0"/>
<feBlend mode="normal" in2="shape" result="effect1_innerShadow_568_15"/>
</filter>
<filter id="filter3_i_568_15" x="0" y="294" width="4" height="64" filterUnits="userSpaceOnUse" color-interpolation-filters="sRGB">
<feFlood flood-opacity="0" result="BackgroundImageFix"/>
<feBlend mode="normal" in="SourceGraphic" in2="BackgroundImageFix" result="shape"/>
<feColorMatrix in="SourceAlpha" type="matrix" values="0 0 0 0 0 0 0 0 0 0 0 0 0 0 0 0 0 0 127 0" result="hardAlpha"/>
<feOffset dx="1"/>
<feGaussianBlur stdDeviation="1"/>
<feComposite in2="hardAlpha" operator="arithmetic" k2="-1" k3="1"/>
<feColorMatrix type="matrix" values="0 0 0 0 1 0 0 0 0 1 0 0 0 0 1 0 0 0 0.5 0"/>
<feBlend mode="normal" in2="shape" result="effect1_innerShadow_568_15"/>
</filter>
<filter id="filter4_i_568_15" x="448" y="236" width="4" height="108" filterUnits="userSpaceOnUse" color-interpolation-filters="sRGB">
<feFlood flood-opacity="0" result="BackgroundImageFix"/>
<feBlend mode="normal" in="SourceGraphic" in2="BackgroundImageFix" result="shape"/>
<feColorMatrix in="SourceAlpha" type="matrix" values="0 0 0 0 0 0 0 0 0 0 0 0 0 0 0 0 0 0 127 0" result="hardAlpha"/>
<feOffset dx="-1"/>
<feGaussianBlur stdDeviation="1"/>
<feComposite in2="hardAlpha" operator="arithmetic" k2="-1" k3="1"/>
<feColorMatrix type="matrix" values="0 0 0 0 1 0 0 0 0 1 0 0 0 0 1 0 0 0 0.5 0"/>
<feBlend mode="normal" in2="shape" result="effect1_innerShadow_568_15"/>
</filter>
<linearGradient id="paint0_linear_568_15" x1="226" y1="0" x2="226" y2="896" gradientUnits="userSpaceOnUse">
<stop stop-color="white" stop-opacity="0.6"/>
<stop offset="1" stop-color="white" stop-opacity="0.3"/>
</linearGradient>
<clipPath id="clip0_568_15">
<rect x="25" y="22" width="402" height="852" rx="40" fill="white"/>
</clipPath>
</defs>
</svg>
