<!DOCTYPE svg PUBLIC "-//W3C//DTD SVG 1.1//EN" "http://www.w3.org/Graphics/SVG/1.1/DTD/svg11.dtd">
<!-- Uploaded to: SVG Repo, www.svgrepo.com, Transformed by: SVG Repo Mixer Tools -->
<svg height="64px" width="64px" version="1.1" id="Layer_1" xmlns="http://www.w3.org/2000/svg" xmlns:xlink="http://www.w3.org/1999/xlink" viewBox="0 0 512 512" xml:space="preserve" fill="#fafafa">
<g id="SVGRepo_bgCarrier" stroke-width="0"/>
<g id="SVGRepo_tracerCarrier" stroke-linecap="round" stroke-linejoin="round"/>
<g id="SVGRepo_iconCarrier"> <g transform="translate(1 1)"> <g> <path style="fill:#f5f5f5;" d="M58.733,272.067L58.733,272.067c-5.12,0-8.533-3.413-8.533-8.533V101.4 c0-5.12,3.413-8.533,8.533-8.533l0,0c5.12,0,8.533,3.413,8.533,8.533v162.133C67.267,268.653,63.853,272.067,58.733,272.067z"/> <path style="fill:#f5f5f5;" d="M195.267,272.067L195.267,272.067c-5.12,0-8.533-3.413-8.533-8.533V101.4 c0-5.12,3.413-8.533,8.533-8.533l0,0c5.12,0,8.533,3.413,8.533,8.533v162.133C203.8,268.653,200.387,272.067,195.267,272.067z"/> <path style="fill:#f5f5f5;" d="M331.8,272.067c-5.12,0-8.533-3.413-8.533-8.533V101.4c0-5.12,3.413-8.533,8.533-8.533 s8.533,3.413,8.533,8.533v162.133C340.333,268.653,336.92,272.067,331.8,272.067z"/> <path style="fill:#f5f5f5;" d="M468.333,272.067c-5.12,0-8.533-3.413-8.533-8.533V101.4c0-5.12,3.413-8.533,8.533-8.533 c5.12,0,8.533,3.413,8.533,8.533v162.133C476.867,268.653,473.453,272.067,468.333,272.067z"/> <path style="fill:#f5f5f5;" d="M468.333,434.2c-5.12,0-8.533-3.413-8.533-8.533V263.533c0-5.12,3.413-8.533,8.533-8.533 c5.12,0,8.533,3.413,8.533,8.533v162.133C476.867,430.787,473.453,434.2,468.333,434.2z"/> <path style="fill:#f5f5f5;" d="M331.8,434.2c-5.12,0-8.533-3.413-8.533-8.533V263.533c0-5.12,3.413-8.533,8.533-8.533 s8.533,3.413,8.533,8.533v162.133C340.333,430.787,336.92,434.2,331.8,434.2z"/> <path style="fill:#f5f5f5;" d="M195.267,434.2c-5.12,0-8.533-3.413-8.533-8.533V263.533c0-5.12,3.413-8.533,8.533-8.533 c5.12,0,8.533,3.413,8.533,8.533v162.133C203.8,430.787,200.387,434.2,195.267,434.2z"/> <path style="fill:#f5f5f5;" d="M468.333,272.067h-409.6c-5.12,0-8.533-3.413-8.533-8.533c0-5.12,3.413-8.533,8.533-8.533h409.6 c5.12,0,8.533,3.413,8.533,8.533C476.867,268.653,473.453,272.067,468.333,272.067z"/> <path style="fill:#f5f5f5;" d="M502.467,50.2c0,23.893-18.773,42.667-42.667,42.667c-23.893,0-42.667-18.773-42.667-42.667 S435.907,7.533,459.8,7.533C483.693,7.533,502.467,26.307,502.467,50.2"/> </g> <path style="fill:#f7f7f7;" d="M459.8,7.533c-4.267,0-8.533,0.853-12.8,2.56c17.067,5.12,29.867,21.333,29.867,40.107 S464.067,85.187,447,90.307c4.267,1.707,8.533,2.56,12.8,2.56c23.893,0,42.667-18.773,42.667-42.667S483.693,7.533,459.8,7.533"/> <path style="fill:#f5f5f5;" d="M502.467,459.8c0,23.893-18.773,42.667-42.667,42.667c-23.893,0-42.667-18.773-42.667-42.667 c0-23.893,18.773-42.667,42.667-42.667C483.693,417.133,502.467,435.907,502.467,459.8"/> <path style="fill:#f7f7f7;" d="M459.8,417.133c-4.267,0-8.533,0.853-12.8,2.56c17.067,5.12,29.867,21.333,29.867,40.107 s-12.8,34.987-29.867,40.107c4.267,1.707,8.533,2.56,12.8,2.56c23.893,0,42.667-18.773,42.667-42.667 C502.467,435.907,483.693,417.133,459.8,417.133"/> <path style="fill:#f5f5f5;" d="M365.933,459.8c0,23.893-18.773,42.667-42.667,42.667c-23.893,0-42.667-18.773-42.667-42.667 c0-23.893,18.773-42.667,42.667-42.667C347.16,417.133,365.933,435.907,365.933,459.8"/> <path style="fill:#f7f7f7;" d="M323.267,417.133c-4.267,0-8.533,0.853-12.8,2.56c17.067,5.12,29.867,21.333,29.867,40.107 s-12.8,34.987-29.867,40.107c4.267,1.707,8.533,2.56,12.8,2.56c23.893,0,42.667-18.773,42.667-42.667 C365.933,435.907,347.16,417.133,323.267,417.133"/> <path style="fill:#f5f5f5;" d="M365.933,50.2c0,23.893-18.773,42.667-42.667,42.667c-23.893,0-42.667-18.773-42.667-42.667 s18.773-42.667,42.667-42.667C347.16,7.533,365.933,26.307,365.933,50.2"/> <path style="fill:#f7f7f7;" d="M323.267,7.533c-4.267,0-8.533,0.853-12.8,2.56c17.067,5.12,29.867,21.333,29.867,40.107 s-12.8,34.987-29.867,40.107c4.267,1.707,8.533,2.56,12.8,2.56c23.893,0,42.667-18.773,42.667-42.667S347.16,7.533,323.267,7.533"/> <path style="fill:#f5f5f5;" d="M229.4,50.2c0,23.893-18.773,42.667-42.667,42.667S144.067,74.093,144.067,50.2 S162.84,7.533,186.733,7.533S229.4,26.307,229.4,50.2"/> <path style="fill:#f7f7f7;" d="M186.733,7.533c-4.267,0-8.533,0.853-12.8,2.56C191,15.213,203.8,31.427,203.8,50.2 S191,85.187,173.933,90.307c4.267,1.707,8.533,2.56,12.8,2.56c23.893,0,42.667-18.773,42.667-42.667S210.627,7.533,186.733,7.533"/> <path style="fill:#f5f5f5;" d="M144.067,459.8c0-23.893,18.773-42.667,42.667-42.667S229.4,435.907,229.4,459.8 c0,23.893-18.773,42.667-42.667,42.667S144.067,483.693,144.067,459.8"/> <path style="fill:#FFFFFF;" d="M186.733,502.467c4.267,0,8.533-0.853,12.8-2.56c-17.067-5.12-29.867-21.333-29.867-40.107 s12.8-34.987,29.867-40.107c-4.267-1.707-8.533-2.56-12.8-2.56c-23.893,0-42.667,18.773-42.667,42.667 C144.067,483.693,162.84,502.467,186.733,502.467"/> <path style="fill:#f5f5f5;" d="M7.533,50.2c0-23.893,18.773-42.667,42.667-42.667S92.867,26.307,92.867,50.2 S74.093,92.867,50.2,92.867S7.533,74.093,7.533,50.2"/> <path style="fill:#FFFFFF;" d="M50.2,92.867c4.267,0,8.533-0.853,12.8-2.56C45.933,85.187,33.133,68.973,33.133,50.2 S45.933,15.213,63,10.093c-4.267-1.707-8.533-2.56-12.8-2.56C26.307,7.533,7.533,26.307,7.533,50.2S26.307,92.867,50.2,92.867"/> <path d="M50.2,101.4C22.04,101.4-1,78.36-1,50.2S22.04-1,50.2-1s51.2,23.04,51.2,51.2S78.36,101.4,50.2,101.4z M50.2,16.067 c-18.773,0-34.133,15.36-34.133,34.133S31.427,84.333,50.2,84.333S84.333,68.973,84.333,50.2S68.973,16.067,50.2,16.067z"/> <path d="M186.733,101.4c-28.16,0-51.2-23.04-51.2-51.2S158.573-1,186.733-1s51.2,23.04,51.2,51.2S214.893,101.4,186.733,101.4z M186.733,16.067c-18.773,0-34.133,15.36-34.133,34.133s15.36,34.133,34.133,34.133s34.133-15.36,34.133-34.133 S205.507,16.067,186.733,16.067z"/> <path d="M323.267,101.4c-28.16,0-51.2-23.04-51.2-51.2S295.107-1,323.267-1c28.16,0,51.2,23.04,51.2,51.2 S351.427,101.4,323.267,101.4z M323.267,16.067c-18.773,0-34.133,15.36-34.133,34.133s15.36,34.133,34.133,34.133 S357.4,68.973,357.4,50.2S342.04,16.067,323.267,16.067z"/> <path d="M459.8,101.4c-28.16,0-51.2-23.04-51.2-51.2S431.64-1,459.8-1S511,22.04,511,50.2S487.96,101.4,459.8,101.4z M459.8,16.067 c-18.773,0-34.133,15.36-34.133,34.133s15.36,34.133,34.133,34.133s34.133-15.36,34.133-34.133S478.573,16.067,459.8,16.067z"/> <path d="M186.733,511c-28.16,0-51.2-23.04-51.2-51.2s23.04-51.2,51.2-51.2s51.2,23.04,51.2,51.2S214.893,511,186.733,511z M186.733,425.667c-18.773,0-34.133,15.36-34.133,34.133s15.36,34.133,34.133,34.133s34.133-15.36,34.133-34.133 S205.507,425.667,186.733,425.667z"/> <path d="M323.267,511c-28.16,0-51.2-23.04-51.2-51.2s23.04-51.2,51.2-51.2c28.16,0,51.2,23.04,51.2,51.2S351.427,511,323.267,511z M323.267,425.667c-18.773,0-34.133,15.36-34.133,34.133s15.36,34.133,34.133,34.133S357.4,478.573,357.4,459.8 S342.04,425.667,323.267,425.667z"/> <path d="M459.8,511c-28.16,0-51.2-23.04-51.2-51.2s23.04-51.2,51.2-51.2s51.2,23.04,51.2,51.2S487.96,511,459.8,511z M459.8,425.667c-18.773,0-34.133,15.36-34.133,34.133s15.36,34.133,34.133,34.133s34.133-15.36,34.133-34.133 S478.573,425.667,459.8,425.667z"/> <path d="M50.2,263.533L50.2,263.533c-5.12,0-8.533-3.413-8.533-8.533V92.867c0-5.12,3.413-8.533,8.533-8.533l0,0 c5.12,0,8.533,3.413,8.533,8.533V255C58.733,260.12,55.32,263.533,50.2,263.533z"/> <path d="M186.733,263.533L186.733,263.533c-5.12,0-8.533-3.413-8.533-8.533V92.867c0-5.12,3.413-8.533,8.533-8.533l0,0 c5.12,0,8.533,3.413,8.533,8.533V255C195.267,260.12,191.853,263.533,186.733,263.533z"/> <path d="M323.267,263.533c-5.12,0-8.533-3.413-8.533-8.533V92.867c0-5.12,3.413-8.533,8.533-8.533c5.12,0,8.533,3.413,8.533,8.533 V255C331.8,260.12,328.387,263.533,323.267,263.533z"/> <path d="M459.8,263.533c-5.12,0-8.533-3.413-8.533-8.533V92.867c0-5.12,3.413-8.533,8.533-8.533s8.533,3.413,8.533,8.533V255 C468.333,260.12,464.92,263.533,459.8,263.533z"/> <path d="M459.8,425.667c-5.12,0-8.533-3.413-8.533-8.533V255c0-5.12,3.413-8.533,8.533-8.533s8.533,3.413,8.533,8.533v162.133 C468.333,422.253,464.92,425.667,459.8,425.667z"/> <path d="M323.267,425.667c-5.12,0-8.533-3.413-8.533-8.533V255c0-5.12,3.413-8.533,8.533-8.533c5.12,0,8.533,3.413,8.533,8.533 v162.133C331.8,422.253,328.387,425.667,323.267,425.667z"/> <path d="M186.733,425.667c-5.12,0-8.533-3.413-8.533-8.533V255c0-5.12,3.413-8.533,8.533-8.533c5.12,0,8.533,3.413,8.533,8.533 v162.133C195.267,422.253,191.853,425.667,186.733,425.667z"/> <path d="M459.8,263.533H50.2c-5.12,0-8.533-3.413-8.533-8.533s3.413-8.533,8.533-8.533h409.6c5.12,0,8.533,3.413,8.533,8.533 S464.92,263.533,459.8,263.533z"/> </g> </g>
</svg>